<?xml version="1.0" standalone="no"?>
<!DOCTYPE svg PUBLIC "-//W3C//DTD SVG 20010904//EN"
 "http://www.w3.org/TR/2001/REC-SVG-20010904/DTD/svg10.dtd">
<svg version="1.0" xmlns="http://www.w3.org/2000/svg"
 width="300.000000pt" height="300.000000pt" viewBox="0 0 300.000000 300.000000"
 preserveAspectRatio="xMidYMid meet">
<metadata>
Created by potrace 1.10, written by Peter Selinger 2001-2011
</metadata>
<g transform="translate(0.000000,300.000000) scale(0.100000,-0.100000)"
fill="#000000" stroke="none">
<path d="M440 1608 c6 -262 9 -273 84 -326 38 -26 45 -27 183 -30 l144 -3 -28
40 -28 40 -88 1 c-173 0 -187 20 -187 268 l0 168 -38 37 c-21 20 -40 37 -42
37 -3 0 -3 -105 0 -232z m68 18 l-2 -131 -3 130 c-3 104 -7 133 -21 150 -17
20 -17 20 6 1 21 -18 22 -25 20 -150z"/>
<path d="M842 1522 c3 -143 4 -150 31 -190 75 -114 249 -114 324 0 27 40 28
47 31 192 l3 151 -40 -40 -41 -39 0 -89 c0 -128 -32 -177 -115 -177 -82 0
-115 52 -115 182 0 78 -2 86 -31 121 -17 20 -35 37 -40 37 -7 0 -9 -54 -7
-148z m46 32 l-3 -59 -5 67 c-3 37 -1 63 3 59 4 -4 7 -35 5 -67z"/>
<path d="M1391 1649 c-55 -28 -98 -93 -106 -163 -3 -28 -5 -96 -3 -151 l3
-100 43 44 42 43 0 90 c0 97 13 136 52 155 43 22 66 24 101 9 57 -23 67 -48
67 -156 l0 -96 46 -44 46 -45 -4 145 c-3 126 -7 151 -26 187 -48 91 -168 129
-261 82z m-18 -37 c-36 -33 -58 -74 -67 -126 -4 -21 -9 -36 -12 -33 -2 2 1 27
7 56 8 37 22 63 48 92 21 21 41 39 46 39 4 0 -6 -12 -22 -28z"/>
<path d="M1844 1651 c-149 -68 -162 -293 -21 -375 146 -86 317 11 317 179 0
155 -157 259 -296 196z m61 -5 c-66 -16 -87 -29 -125 -73 -18 -21 -27 -29 -21
-18 33 61 106 105 171 104 14 -1 3 -6 -25 -13z m117 -105 c54 -60 42 -150 -24
-191 -100 -61 -219 28 -188 141 27 95 145 123 212 50z m71 -202 c-20 -34 -89
-80 -119 -78 -11 0 -5 5 14 10 18 6 52 30 75 54 51 52 53 53 30 14z"/>
<path d="M2181 1603 c126 -160 114 -140 94 -163 -10 -11 -16 -23 -13 -26 4 -3
20 14 37 38 16 24 51 66 76 93 l47 50 -45 -60 c-47 -64 -134 -160 -121 -135 7
13 6 13 -10 1 -9 -8 -15 -20 -12 -28 3 -8 2 -12 -3 -9 -7 5 -43 -34 -94 -101
-7 -10 3 -13 44 -13 l54 1 54 69 c30 39 57 70 60 69 3 0 30 -31 59 -70 l53
-69 50 0 c59 0 61 -8 -39 118 l-73 92 80 103 80 102 -47 3 c-39 3 -50 -1 -67
-20 -11 -13 -38 -46 -60 -72 l-41 -48 -49 64 c-27 34 -54 66 -60 70 -5 4 -32
8 -58 8 l-49 0 53 -67z"/>
</g>
</svg>
